<mxfile host="app.diagrams.net" modified="2024-03-04T11:28:41.837Z" agent="Mozilla/5.0 (Macintosh; Intel Mac OS X 10_15_7) AppleWebKit/537.36 (KHTML, like Gecko) Chrome/120.0.0.0 Safari/537.36" etag="jWvHLU7v3S23iSpIg5Ir" version="23.1.7" type="github">
  <diagram name="第 1 页" id="qbe7cn5mvpErzaGYm93J">
    <mxGraphModel dx="1306" dy="826" grid="0" gridSize="10" guides="1" tooltips="1" connect="1" arrows="1" fold="1" page="1" pageScale="1" pageWidth="827" pageHeight="1169" math="0" shadow="0">
      <root>
        <mxCell id="0" />
        <mxCell id="1" parent="0" />
        <mxCell id="EYnF3BpxqmaNiszj7OWi-9" value="" style="rounded=0;whiteSpace=wrap;html=1;dashed=1;" parent="1" vertex="1">
          <mxGeometry x="197" y="60" width="154" height="57" as="geometry" />
        </mxCell>
        <mxCell id="EYnF3BpxqmaNiszj7OWi-8" value="" style="rounded=0;whiteSpace=wrap;html=1;dashed=1;" parent="1" vertex="1">
          <mxGeometry x="359" y="60" width="154" height="57" as="geometry" />
        </mxCell>
        <mxCell id="EYnF3BpxqmaNiszj7OWi-2" value="3" style="rounded=0;whiteSpace=wrap;html=1;sketch=1;curveFitting=1;jiggle=2;fillColor=#dae8fc;strokeColor=#6c8ebf;" parent="1" vertex="1">
          <mxGeometry x="465" y="73" width="35" height="35" as="geometry" />
        </mxCell>
        <mxCell id="EYnF3BpxqmaNiszj7OWi-3" value="4" style="rounded=0;whiteSpace=wrap;html=1;sketch=1;curveFitting=1;jiggle=2;fillColor=#dae8fc;strokeColor=#6c8ebf;" parent="1" vertex="1">
          <mxGeometry x="417" y="73" width="35" height="35" as="geometry" />
        </mxCell>
        <mxCell id="EYnF3BpxqmaNiszj7OWi-4" value="5" style="rounded=0;whiteSpace=wrap;html=1;sketch=1;curveFitting=1;jiggle=2;" parent="1" vertex="1">
          <mxGeometry x="364" y="73" width="35" height="35" as="geometry" />
        </mxCell>
        <mxCell id="EYnF3BpxqmaNiszj7OWi-5" value="6" style="rounded=0;whiteSpace=wrap;html=1;sketch=1;curveFitting=1;jiggle=2;fillColor=#dae8fc;strokeColor=#6c8ebf;" parent="1" vertex="1">
          <mxGeometry x="311" y="73" width="35" height="35" as="geometry" />
        </mxCell>
        <mxCell id="EYnF3BpxqmaNiszj7OWi-6" value="7" style="rounded=0;whiteSpace=wrap;html=1;sketch=1;curveFitting=1;jiggle=2;fillColor=#dae8fc;strokeColor=#6c8ebf;" parent="1" vertex="1">
          <mxGeometry x="263" y="73" width="35" height="35" as="geometry" />
        </mxCell>
        <mxCell id="EYnF3BpxqmaNiszj7OWi-7" value="8" style="rounded=0;whiteSpace=wrap;html=1;sketch=1;curveFitting=1;jiggle=2;fillColor=#dae8fc;strokeColor=#6c8ebf;" parent="1" vertex="1">
          <mxGeometry x="210" y="73" width="35" height="35" as="geometry" />
        </mxCell>
        <mxCell id="EYnF3BpxqmaNiszj7OWi-12" value="0" style="rounded=0;whiteSpace=wrap;html=1;sketch=1;curveFitting=1;jiggle=2;fillColor=#dae8fc;strokeColor=#6c8ebf;" parent="1" vertex="1">
          <mxGeometry x="622" y="71" width="35" height="35" as="geometry" />
        </mxCell>
        <mxCell id="EYnF3BpxqmaNiszj7OWi-13" value="1" style="rounded=0;whiteSpace=wrap;html=1;sketch=1;curveFitting=1;jiggle=2;fillColor=#dae8fc;strokeColor=#6c8ebf;" parent="1" vertex="1">
          <mxGeometry x="574" y="71" width="35" height="35" as="geometry" />
        </mxCell>
        <mxCell id="EYnF3BpxqmaNiszj7OWi-14" value="2" style="rounded=0;whiteSpace=wrap;html=1;sketch=1;curveFitting=1;jiggle=2;fillColor=#dae8fc;strokeColor=#6c8ebf;" parent="1" vertex="1">
          <mxGeometry x="521" y="71" width="35" height="35" as="geometry" />
        </mxCell>
        <mxCell id="EYnF3BpxqmaNiszj7OWi-15" value="9" style="rounded=0;whiteSpace=wrap;html=1;sketch=1;curveFitting=1;jiggle=2;" parent="1" vertex="1">
          <mxGeometry x="146" y="73" width="35" height="35" as="geometry" />
        </mxCell>
        <mxCell id="EYnF3BpxqmaNiszj7OWi-18" value="未收到" style="text;html=1;align=center;verticalAlign=middle;resizable=0;points=[];autosize=1;strokeColor=none;fillColor=none;" parent="1" vertex="1">
          <mxGeometry x="119" y="126" width="54" height="26" as="geometry" />
        </mxCell>
        <mxCell id="EYnF3BpxqmaNiszj7OWi-19" value="请求二" style="text;html=1;align=center;verticalAlign=middle;resizable=0;points=[];autosize=1;strokeColor=none;fillColor=none;" parent="1" vertex="1">
          <mxGeometry x="239" y="19" width="54" height="26" as="geometry" />
        </mxCell>
        <mxCell id="EYnF3BpxqmaNiszj7OWi-20" value="请求一" style="text;html=1;align=center;verticalAlign=middle;resizable=0;points=[];autosize=1;strokeColor=none;fillColor=none;" parent="1" vertex="1">
          <mxGeometry x="413" y="19" width="54" height="26" as="geometry" />
        </mxCell>
        <mxCell id="EYnF3BpxqmaNiszj7OWi-21" value="已读取" style="text;html=1;align=center;verticalAlign=middle;resizable=0;points=[];autosize=1;strokeColor=none;fillColor=none;" parent="1" vertex="1">
          <mxGeometry x="570" y="126" width="54" height="26" as="geometry" />
        </mxCell>
        <mxCell id="EYnF3BpxqmaNiszj7OWi-22" value="&lt;font data-font-src=&quot;https://fonts.googleapis.com/css?family=Comic+Neue&quot; face=&quot;Comic Neue&quot; style=&quot;font-size: 16px;&quot;&gt;ARP&lt;/font&gt;" style="rounded=0;whiteSpace=wrap;html=1;sketch=1;curveFitting=1;jiggle=2;" parent="1" vertex="1">
          <mxGeometry x="242" y="657" width="328" height="59" as="geometry" />
        </mxCell>
        <mxCell id="EYnF3BpxqmaNiszj7OWi-25" value="&lt;font face=&quot;Comic Neue&quot; style=&quot;font-size: 16px;&quot;&gt;IP&lt;/font&gt;" style="rounded=0;whiteSpace=wrap;html=1;sketch=1;curveFitting=1;jiggle=2;" parent="1" vertex="1">
          <mxGeometry x="242" y="598" width="328" height="59" as="geometry" />
        </mxCell>
        <mxCell id="EYnF3BpxqmaNiszj7OWi-26" value="" style="rounded=0;whiteSpace=wrap;html=1;sketch=1;curveFitting=1;jiggle=2;" parent="1" vertex="1">
          <mxGeometry x="242" y="455" width="328" height="84" as="geometry" />
        </mxCell>
        <mxCell id="EYnF3BpxqmaNiszj7OWi-29" value="&lt;font style=&quot;font-size: 16px;&quot; face=&quot;Comic Sans MS&quot;&gt;物理层&lt;/font&gt;" style="text;html=1;align=center;verticalAlign=middle;resizable=0;points=[];autosize=1;strokeColor=none;fillColor=none;" parent="1" vertex="1">
          <mxGeometry x="143" y="671.5" width="66" height="31" as="geometry" />
        </mxCell>
        <mxCell id="EYnF3BpxqmaNiszj7OWi-30" value="&lt;font data-font-src=&quot;https://fonts.googleapis.com/css?family=Comic+Neue&quot; face=&quot;Comic Neue&quot; style=&quot;font-size: 16px;&quot;&gt;网络层&lt;/font&gt;" style="text;html=1;align=center;verticalAlign=middle;resizable=0;points=[];autosize=1;strokeColor=none;fillColor=none;" parent="1" vertex="1">
          <mxGeometry x="143" y="612" width="66" height="31" as="geometry" />
        </mxCell>
        <mxCell id="W1v7sUN2d6mJsJaFAW1B-1" value="" style="group" vertex="1" connectable="0" parent="1">
          <mxGeometry x="242" y="540" width="328" height="63" as="geometry" />
        </mxCell>
        <mxCell id="EYnF3BpxqmaNiszj7OWi-23" value="&lt;font data-font-src=&quot;https://fonts.googleapis.com/css?family=Comic+Neue&quot; face=&quot;Comic Neue&quot; style=&quot;font-size: 16px;&quot;&gt;TCP&lt;/font&gt;" style="rounded=0;whiteSpace=wrap;html=1;sketch=1;curveFitting=1;jiggle=2;" parent="W1v7sUN2d6mJsJaFAW1B-1" vertex="1">
          <mxGeometry width="166" height="61" as="geometry" />
        </mxCell>
        <mxCell id="EYnF3BpxqmaNiszj7OWi-28" value="&lt;font style=&quot;font-size: 16px;&quot; data-font-src=&quot;https://fonts.googleapis.com/css?family=Comic+Neue&quot; face=&quot;Comic Neue&quot;&gt;UDP&lt;/font&gt;" style="rounded=0;whiteSpace=wrap;html=1;sketch=1;curveFitting=1;jiggle=2;" parent="W1v7sUN2d6mJsJaFAW1B-1" vertex="1">
          <mxGeometry x="166" width="162" height="63" as="geometry" />
        </mxCell>
        <mxCell id="W1v7sUN2d6mJsJaFAW1B-2" value="&lt;font data-font-src=&quot;https://fonts.googleapis.com/css?family=Comic+Neue&quot; face=&quot;Comic Neue&quot; style=&quot;font-size: 16px;&quot;&gt;传输层&lt;/font&gt;" style="text;html=1;align=center;verticalAlign=middle;resizable=0;points=[];autosize=1;strokeColor=none;fillColor=none;" vertex="1" parent="1">
          <mxGeometry x="145" y="556.5" width="66" height="31" as="geometry" />
        </mxCell>
        <mxCell id="W1v7sUN2d6mJsJaFAW1B-5" value="&lt;font data-font-src=&quot;https://fonts.googleapis.com/css?family=Comic+Neue&quot; face=&quot;Comic Neue&quot; style=&quot;font-size: 16px;&quot;&gt;应用层&lt;/font&gt;" style="text;html=1;align=center;verticalAlign=middle;resizable=0;points=[];autosize=1;strokeColor=none;fillColor=none;" vertex="1" parent="1">
          <mxGeometry x="145" y="494" width="66" height="31" as="geometry" />
        </mxCell>
        <mxCell id="W1v7sUN2d6mJsJaFAW1B-6" value="&lt;font data-font-src=&quot;https://fonts.googleapis.com/css?family=Comic+Neue&quot; face=&quot;Comic Neue&quot; style=&quot;font-size: 16px;&quot;&gt;TLS&lt;/font&gt;" style="rounded=0;whiteSpace=wrap;html=1;sketch=1;curveFitting=1;jiggle=2;dashed=1;" vertex="1" parent="1">
          <mxGeometry x="242" y="501" width="166" height="39" as="geometry" />
        </mxCell>
        <mxCell id="W1v7sUN2d6mJsJaFAW1B-7" value="&lt;font data-font-src=&quot;https://fonts.googleapis.com/css?family=Comic+Neue&quot; face=&quot;Comic Neue&quot; style=&quot;font-size: 16px;&quot;&gt;HTTP&lt;/font&gt;" style="rounded=0;whiteSpace=wrap;html=1;sketch=1;curveFitting=1;jiggle=2;dashed=1;" vertex="1" parent="1">
          <mxGeometry x="242" y="457" width="328" height="44" as="geometry" />
        </mxCell>
        <mxCell id="W1v7sUN2d6mJsJaFAW1B-8" value="&lt;font data-font-src=&quot;https://fonts.googleapis.com/css?family=Comic+Neue&quot; face=&quot;Comic Neue&quot; style=&quot;font-size: 16px;&quot;&gt;QUIC&lt;/font&gt;" style="rounded=0;whiteSpace=wrap;html=1;dashed=1;fillColor=#d5e8d4;strokeColor=#82b366;" vertex="1" parent="1">
          <mxGeometry x="410" y="501" width="160" height="36" as="geometry" />
        </mxCell>
        <mxCell id="W1v7sUN2d6mJsJaFAW1B-11" value="" style="shape=partialRectangle;whiteSpace=wrap;html=1;left=0;right=0;fillColor=none;rounded=0;sketch=1;jiggle=2;curveFitting=1;strokeColor=default;align=center;verticalAlign=middle;fontFamily=Helvetica;fontSize=12;fontColor=default;direction=south;" vertex="1" parent="1">
          <mxGeometry x="297.5" y="750" width="182.5" height="405" as="geometry" />
        </mxCell>
        <mxCell id="W1v7sUN2d6mJsJaFAW1B-26" value="" style="group" vertex="1" connectable="0" parent="1">
          <mxGeometry x="351.3" y="758.86" width="77.7" height="29.14" as="geometry" />
        </mxCell>
        <mxCell id="W1v7sUN2d6mJsJaFAW1B-12" value="" style="endArrow=classic;html=1;rounded=0;fontFamily=Helvetica;fontSize=12;fontColor=default;exitX=0.062;exitY=1;exitDx=0;exitDy=0;exitPerimeter=0;entryX=0.143;entryY=0.005;entryDx=0;entryDy=0;entryPerimeter=0;" edge="1" parent="W1v7sUN2d6mJsJaFAW1B-26" source="W1v7sUN2d6mJsJaFAW1B-11" target="W1v7sUN2d6mJsJaFAW1B-11">
          <mxGeometry width="50" height="50" relative="1" as="geometry">
            <mxPoint x="-153.04808846960702" y="59.90260297161851" as="sourcePoint" />
            <mxPoint x="95.10067552393758" y="33.15645538356234" as="targetPoint" />
          </mxGeometry>
        </mxCell>
        <mxCell id="W1v7sUN2d6mJsJaFAW1B-14" value="" style="edgeLabel;html=1;align=center;verticalAlign=middle;resizable=0;points=[];rounded=0;sketch=1;jiggle=2;curveFitting=1;strokeColor=default;fontFamily=Helvetica;fontSize=12;fontColor=default;fillColor=default;" vertex="1" connectable="0" parent="W1v7sUN2d6mJsJaFAW1B-12">
          <mxGeometry x="0.5752" y="-1" relative="1" as="geometry">
            <mxPoint as="offset" />
          </mxGeometry>
        </mxCell>
        <mxCell id="W1v7sUN2d6mJsJaFAW1B-16" value="&lt;font data-font-src=&quot;https://fonts.googleapis.com/css?family=Comic+Neue&quot; face=&quot;Comic Neue&quot;&gt;ClientInitial&lt;/font&gt;" style="text;html=1;align=center;verticalAlign=middle;resizable=0;points=[];autosize=1;strokeColor=none;fillColor=none;fontFamily=Helvetica;fontSize=12;fontColor=default;rotation=10;" vertex="1" parent="W1v7sUN2d6mJsJaFAW1B-26">
          <mxGeometry x="0.5317868068855233" y="2.7837115123799108" width="76" height="26" as="geometry" />
        </mxCell>
        <mxCell id="W1v7sUN2d6mJsJaFAW1B-32" value="" style="endArrow=classic;html=1;rounded=0;fontFamily=Helvetica;fontSize=12;fontColor=default;exitX=0.062;exitY=1;exitDx=0;exitDy=0;exitPerimeter=0;entryX=0.143;entryY=0.005;entryDx=0;entryDy=0;entryPerimeter=0;" edge="1" parent="1">
          <mxGeometry width="50" height="50" relative="1" as="geometry">
            <mxPoint x="297.9970907053843" y="900.9993407259983" as="sourcePoint" />
            <mxPoint x="480.9970907053843" y="934.9993407259983" as="targetPoint" />
          </mxGeometry>
        </mxCell>
        <mxCell id="W1v7sUN2d6mJsJaFAW1B-33" value="" style="edgeLabel;html=1;align=center;verticalAlign=middle;resizable=0;points=[];rounded=0;sketch=1;jiggle=2;curveFitting=1;strokeColor=default;fontFamily=Helvetica;fontSize=12;fontColor=default;fillColor=default;" vertex="1" connectable="0" parent="W1v7sUN2d6mJsJaFAW1B-32">
          <mxGeometry x="0.5752" y="-1" relative="1" as="geometry">
            <mxPoint as="offset" />
          </mxGeometry>
        </mxCell>
        <mxCell id="W1v7sUN2d6mJsJaFAW1B-36" value="" style="group" vertex="1" connectable="0" parent="1">
          <mxGeometry x="351.29709070538433" y="887.2793407259983" width="76.40581858923133" height="38.281318548003355" as="geometry" />
        </mxCell>
        <mxCell id="W1v7sUN2d6mJsJaFAW1B-39" value="&lt;font data-font-src=&quot;https://fonts.googleapis.com/css?family=Comic+Neue&quot; face=&quot;Comic Neue&quot;&gt;EncData&lt;/font&gt;" style="text;html=1;align=center;verticalAlign=middle;resizable=0;points=[];autosize=1;strokeColor=none;fillColor=none;fontFamily=Helvetica;fontSize=12;fontColor=default;rotation=10;" vertex="1" parent="W1v7sUN2d6mJsJaFAW1B-36">
          <mxGeometry x="7.702909294615665" y="6.140659274001678" width="61" height="26" as="geometry" />
        </mxCell>
        <mxCell id="W1v7sUN2d6mJsJaFAW1B-40" value="" style="endArrow=classic;html=1;rounded=0;fontFamily=Helvetica;fontSize=12;fontColor=default;entryX=0.25;entryY=1;entryDx=0;entryDy=0;exitX=0.159;exitY=0.005;exitDx=0;exitDy=0;exitPerimeter=0;" edge="1" parent="1">
          <mxGeometry width="50" height="50" relative="1" as="geometry">
            <mxPoint x="481.64720810153807" y="938.998431021795" as="sourcePoint" />
            <mxPoint x="298.64720810153807" y="977.998431021795" as="targetPoint" />
          </mxGeometry>
        </mxCell>
        <mxCell id="W1v7sUN2d6mJsJaFAW1B-41" value="" style="edgeLabel;html=1;align=center;verticalAlign=middle;resizable=0;points=[];rounded=0;sketch=1;jiggle=2;curveFitting=1;strokeColor=default;fontFamily=Helvetica;fontSize=12;fontColor=default;fillColor=default;" vertex="1" connectable="0" parent="W1v7sUN2d6mJsJaFAW1B-40">
          <mxGeometry x="0.5752" y="-1" relative="1" as="geometry">
            <mxPoint as="offset" />
          </mxGeometry>
        </mxCell>
        <mxCell id="W1v7sUN2d6mJsJaFAW1B-43" value="" style="group" vertex="1" connectable="0" parent="1">
          <mxGeometry x="334.9472081015381" y="929.998431021795" width="81.10558379692384" height="45.043137956409964" as="geometry" />
        </mxCell>
        <mxCell id="W1v7sUN2d6mJsJaFAW1B-46" value="&lt;font face=&quot;Comic Neue&quot;&gt;EncData&lt;/font&gt;" style="text;html=1;align=center;verticalAlign=middle;resizable=0;points=[];autosize=1;strokeColor=none;fillColor=none;fontFamily=Helvetica;fontSize=12;fontColor=default;rotation=-15;" vertex="1" parent="W1v7sUN2d6mJsJaFAW1B-43">
          <mxGeometry x="10.05279189846192" y="9.521568978204982" width="61" height="26" as="geometry" />
        </mxCell>
        <mxCell id="W1v7sUN2d6mJsJaFAW1B-47" value="" style="endArrow=classic;html=1;rounded=0;fontFamily=Helvetica;fontSize=12;fontColor=default;exitX=0.062;exitY=1;exitDx=0;exitDy=0;exitPerimeter=0;" edge="1" parent="1">
          <mxGeometry width="50" height="50" relative="1" as="geometry">
            <mxPoint x="294.9970907053843" y="860.9993407259983" as="sourcePoint" />
            <mxPoint x="478" y="895" as="targetPoint" />
          </mxGeometry>
        </mxCell>
        <mxCell id="W1v7sUN2d6mJsJaFAW1B-48" value="" style="edgeLabel;html=1;align=center;verticalAlign=middle;resizable=0;points=[];rounded=0;sketch=1;jiggle=2;curveFitting=1;strokeColor=default;fontFamily=Helvetica;fontSize=12;fontColor=default;fillColor=default;" vertex="1" connectable="0" parent="W1v7sUN2d6mJsJaFAW1B-47">
          <mxGeometry x="0.5752" y="-1" relative="1" as="geometry">
            <mxPoint as="offset" />
          </mxGeometry>
        </mxCell>
        <mxCell id="W1v7sUN2d6mJsJaFAW1B-49" value="" style="group" vertex="1" connectable="0" parent="1">
          <mxGeometry x="352" y="849" width="111" height="38" as="geometry" />
        </mxCell>
        <mxCell id="W1v7sUN2d6mJsJaFAW1B-52" value="&lt;font data-font-src=&quot;https://fonts.googleapis.com/css?family=Comic+Neue&quot; face=&quot;Comic Neue&quot;&gt;ClientFinish(HandShake)&lt;/font&gt;" style="text;html=1;align=center;verticalAlign=middle;resizable=0;points=[];autosize=1;strokeColor=none;fillColor=none;fontFamily=Helvetica;fontSize=12;fontColor=default;rotation=10;" vertex="1" parent="W1v7sUN2d6mJsJaFAW1B-49">
          <mxGeometry x="-33.386449297926674" y="6.095533311358063" width="144" height="26" as="geometry" />
        </mxCell>
        <mxCell id="W1v7sUN2d6mJsJaFAW1B-20" value="" style="endArrow=classic;html=1;rounded=0;fontFamily=Helvetica;fontSize=12;fontColor=default;exitX=0.159;exitY=0.005;exitDx=0;exitDy=0;exitPerimeter=0;" edge="1" parent="1">
          <mxGeometry width="50" height="50" relative="1" as="geometry">
            <mxPoint x="480.5799999999999" y="811.0049999999999" as="sourcePoint" />
            <mxPoint x="302" y="854" as="targetPoint" />
          </mxGeometry>
        </mxCell>
        <mxCell id="W1v7sUN2d6mJsJaFAW1B-21" value="" style="edgeLabel;html=1;align=center;verticalAlign=middle;resizable=0;points=[];rounded=0;sketch=1;jiggle=2;curveFitting=1;strokeColor=default;fontFamily=Helvetica;fontSize=12;fontColor=default;fillColor=default;" vertex="1" connectable="0" parent="W1v7sUN2d6mJsJaFAW1B-20">
          <mxGeometry x="0.5752" y="-1" relative="1" as="geometry">
            <mxPoint as="offset" />
          </mxGeometry>
        </mxCell>
        <mxCell id="W1v7sUN2d6mJsJaFAW1B-23" value="&lt;font data-font-src=&quot;https://fonts.googleapis.com/css?family=Comic+Neue&quot; face=&quot;Comic Neue&quot;&gt;ServerInitial + HandShake&lt;/font&gt;" style="text;html=1;align=center;verticalAlign=middle;resizable=0;points=[];autosize=1;strokeColor=none;fillColor=none;fontFamily=Helvetica;fontSize=12;fontColor=default;rotation=-15;" vertex="1" parent="1">
          <mxGeometry x="308.0042313200647" y="805.0035620798396" width="152" height="26" as="geometry" />
        </mxCell>
        <mxCell id="W1v7sUN2d6mJsJaFAW1B-59" value="" style="endArrow=classic;html=1;rounded=0;fontFamily=Helvetica;fontSize=12;fontColor=default;exitX=0.062;exitY=1;exitDx=0;exitDy=0;exitPerimeter=0;entryX=0.143;entryY=0.005;entryDx=0;entryDy=0;entryPerimeter=0;" edge="1" parent="1">
          <mxGeometry width="50" height="50" relative="1" as="geometry">
            <mxPoint x="298.5" y="1033" as="sourcePoint" />
            <mxPoint x="480.5" y="1062" as="targetPoint" />
          </mxGeometry>
        </mxCell>
        <mxCell id="W1v7sUN2d6mJsJaFAW1B-60" value="" style="edgeLabel;html=1;align=center;verticalAlign=middle;resizable=0;points=[];rounded=0;sketch=1;jiggle=2;curveFitting=1;strokeColor=default;fontFamily=Helvetica;fontSize=12;fontColor=default;fillColor=default;" vertex="1" connectable="0" parent="W1v7sUN2d6mJsJaFAW1B-59">
          <mxGeometry x="0.5752" y="-1" relative="1" as="geometry">
            <mxPoint as="offset" />
          </mxGeometry>
        </mxCell>
        <mxCell id="W1v7sUN2d6mJsJaFAW1B-62" value="" style="group" vertex="1" connectable="0" parent="1">
          <mxGeometry x="350" y="1018" width="104.53178680688552" height="29.14" as="geometry" />
        </mxCell>
        <mxCell id="W1v7sUN2d6mJsJaFAW1B-65" value="&lt;font data-font-src=&quot;https://fonts.googleapis.com/css?family=Comic+Neue&quot; face=&quot;Comic Neue&quot;&gt;ClientInitial + EncData&lt;/font&gt;" style="text;html=1;align=center;verticalAlign=middle;resizable=0;points=[];autosize=1;strokeColor=none;fillColor=none;fontFamily=Helvetica;fontSize=12;fontColor=default;rotation=10;" vertex="1" parent="W1v7sUN2d6mJsJaFAW1B-62">
          <mxGeometry x="-27.468213193114476" y="2.7837115123799108" width="132" height="26" as="geometry" />
        </mxCell>
        <mxCell id="W1v7sUN2d6mJsJaFAW1B-66" value="&lt;font data-font-src=&quot;https://fonts.googleapis.com/css?family=Comic+Neue&quot; face=&quot;Comic Neue&quot;&gt;ServerInitial + HandShake + EncData&lt;/font&gt;" style="text;html=1;align=center;verticalAlign=middle;resizable=0;points=[];autosize=1;strokeColor=none;fillColor=none;fontFamily=Helvetica;fontSize=12;fontColor=default;rotation=-15;" vertex="1" parent="1">
          <mxGeometry x="284.7542313200647" y="1070.0035620798396" width="208" height="26" as="geometry" />
        </mxCell>
        <mxCell id="W1v7sUN2d6mJsJaFAW1B-67" value="" style="endArrow=classic;html=1;rounded=0;fontFamily=Helvetica;fontSize=12;fontColor=default;entryX=0.25;entryY=1;entryDx=0;entryDy=0;exitX=0.159;exitY=0.005;exitDx=0;exitDy=0;exitPerimeter=0;" edge="1" parent="1">
          <mxGeometry width="50" height="50" relative="1" as="geometry">
            <mxPoint x="482.9972081015381" y="1075.998431021795" as="sourcePoint" />
            <mxPoint x="299.9972081015381" y="1114.998431021795" as="targetPoint" />
          </mxGeometry>
        </mxCell>
        <mxCell id="W1v7sUN2d6mJsJaFAW1B-68" value="" style="edgeLabel;html=1;align=center;verticalAlign=middle;resizable=0;points=[];rounded=0;sketch=1;jiggle=2;curveFitting=1;strokeColor=default;fontFamily=Helvetica;fontSize=12;fontColor=default;fillColor=default;" vertex="1" connectable="0" parent="W1v7sUN2d6mJsJaFAW1B-67">
          <mxGeometry x="0.5752" y="-1" relative="1" as="geometry">
            <mxPoint as="offset" />
          </mxGeometry>
        </mxCell>
        <mxCell id="W1v7sUN2d6mJsJaFAW1B-69" value="" style="endArrow=classic;html=1;rounded=0;fontFamily=Helvetica;fontSize=12;fontColor=default;exitX=0.062;exitY=1;exitDx=0;exitDy=0;exitPerimeter=0;" edge="1" parent="1">
          <mxGeometry width="50" height="50" relative="1" as="geometry">
            <mxPoint x="297.9970907053843" y="1120.9993407259983" as="sourcePoint" />
            <mxPoint x="481" y="1155" as="targetPoint" />
          </mxGeometry>
        </mxCell>
        <mxCell id="W1v7sUN2d6mJsJaFAW1B-70" value="" style="edgeLabel;html=1;align=center;verticalAlign=middle;resizable=0;points=[];rounded=0;sketch=1;jiggle=2;curveFitting=1;strokeColor=default;fontFamily=Helvetica;fontSize=12;fontColor=default;fillColor=default;" vertex="1" connectable="0" parent="W1v7sUN2d6mJsJaFAW1B-69">
          <mxGeometry x="0.5752" y="-1" relative="1" as="geometry">
            <mxPoint as="offset" />
          </mxGeometry>
        </mxCell>
        <mxCell id="W1v7sUN2d6mJsJaFAW1B-71" value="" style="group" vertex="1" connectable="0" parent="1">
          <mxGeometry x="363" y="1111" width="138.61355070207333" height="38" as="geometry" />
        </mxCell>
        <mxCell id="W1v7sUN2d6mJsJaFAW1B-72" value="&lt;font data-font-src=&quot;https://fonts.googleapis.com/css?family=Comic+Neue&quot; face=&quot;Comic Neue&quot;&gt;ClientFinish(HandShake + EncData)&lt;/font&gt;" style="text;html=1;align=center;verticalAlign=middle;resizable=0;points=[];autosize=1;strokeColor=none;fillColor=none;fontFamily=Helvetica;fontSize=12;fontColor=default;rotation=10;" vertex="1" parent="W1v7sUN2d6mJsJaFAW1B-71">
          <mxGeometry x="-61.386449297926674" y="6.095533311358063" width="200" height="26" as="geometry" />
        </mxCell>
        <mxCell id="W1v7sUN2d6mJsJaFAW1B-73" value="&lt;font face=&quot;Comic Sans MS&quot;&gt;1-RTT握手&lt;/font&gt;" style="text;html=1;align=center;verticalAlign=middle;resizable=0;points=[];autosize=1;strokeColor=none;fillColor=none;fontFamily=Helvetica;fontSize=12;fontColor=default;" vertex="1" parent="1">
          <mxGeometry x="191" y="800" width="76" height="27" as="geometry" />
        </mxCell>
        <mxCell id="W1v7sUN2d6mJsJaFAW1B-74" value="&lt;font face=&quot;Comic Sans MS&quot;&gt;0-RTT握手&lt;/font&gt;" style="text;html=1;align=center;verticalAlign=middle;resizable=0;points=[];autosize=1;strokeColor=none;fillColor=none;fontFamily=Helvetica;fontSize=12;fontColor=default;" vertex="1" parent="1">
          <mxGeometry x="189" y="1064" width="78" height="27" as="geometry" />
        </mxCell>
        <mxCell id="W1v7sUN2d6mJsJaFAW1B-76" value="连接断开" style="text;html=1;align=center;verticalAlign=middle;resizable=0;points=[];autosize=1;strokeColor=none;fillColor=none;fontFamily=Helvetica;fontSize=12;fontColor=default;" vertex="1" parent="1">
          <mxGeometry x="203" y="989" width="66" height="26" as="geometry" />
        </mxCell>
        <mxCell id="W1v7sUN2d6mJsJaFAW1B-77" value="" style="shape=curlyBracket;whiteSpace=wrap;html=1;rounded=1;labelPosition=left;verticalLabelPosition=middle;align=right;verticalAlign=middle;sketch=1;jiggle=2;curveFitting=1;strokeColor=default;fontFamily=Helvetica;fontSize=12;fontColor=default;fillColor=default;" vertex="1" parent="1">
          <mxGeometry x="262" y="765" width="18" height="92" as="geometry" />
        </mxCell>
        <mxCell id="W1v7sUN2d6mJsJaFAW1B-78" value="" style="shape=curlyBracket;whiteSpace=wrap;html=1;rounded=1;labelPosition=left;verticalLabelPosition=middle;align=right;verticalAlign=middle;sketch=1;jiggle=2;curveFitting=1;strokeColor=default;fontFamily=Helvetica;fontSize=12;fontColor=default;fillColor=default;" vertex="1" parent="1">
          <mxGeometry x="267" y="1031" width="14" height="89" as="geometry" />
        </mxCell>
        <mxCell id="W1v7sUN2d6mJsJaFAW1B-79" value="" style="shape=curlyBracket;whiteSpace=wrap;html=1;rounded=1;labelPosition=left;verticalLabelPosition=middle;align=right;verticalAlign=middle;sketch=1;jiggle=2;curveFitting=1;strokeColor=default;fontFamily=Helvetica;fontSize=12;fontColor=default;fillColor=default;" vertex="1" parent="1">
          <mxGeometry x="271" y="982" width="5" height="36" as="geometry" />
        </mxCell>
        <mxCell id="W1v7sUN2d6mJsJaFAW1B-85" value="" style="edgeStyle=orthogonalEdgeStyle;rounded=0;orthogonalLoop=1;jettySize=auto;html=1;fontFamily=Helvetica;fontSize=12;fontColor=default;" edge="1" parent="1" source="W1v7sUN2d6mJsJaFAW1B-81" target="W1v7sUN2d6mJsJaFAW1B-82">
          <mxGeometry relative="1" as="geometry" />
        </mxCell>
        <mxCell id="W1v7sUN2d6mJsJaFAW1B-86" value="&lt;font face=&quot;Comic Sans MS&quot; style=&quot;font-size: 14px;&quot;&gt;连接切换&lt;/font&gt;" style="edgeLabel;html=1;align=center;verticalAlign=middle;resizable=0;points=[];rounded=0;sketch=1;jiggle=2;curveFitting=1;strokeColor=default;fontFamily=Helvetica;fontSize=12;fontColor=default;fillColor=default;" vertex="1" connectable="0" parent="W1v7sUN2d6mJsJaFAW1B-85">
          <mxGeometry y="3" relative="1" as="geometry">
            <mxPoint as="offset" />
          </mxGeometry>
        </mxCell>
        <mxCell id="W1v7sUN2d6mJsJaFAW1B-89" style="edgeStyle=orthogonalEdgeStyle;rounded=0;orthogonalLoop=1;jettySize=auto;html=1;exitX=1;exitY=0.5;exitDx=0;exitDy=0;entryX=0;entryY=0.5;entryDx=0;entryDy=0;fontFamily=Helvetica;fontSize=12;fontColor=default;dashed=1;" edge="1" parent="1" source="W1v7sUN2d6mJsJaFAW1B-81" target="W1v7sUN2d6mJsJaFAW1B-83">
          <mxGeometry relative="1" as="geometry" />
        </mxCell>
        <mxCell id="W1v7sUN2d6mJsJaFAW1B-81" value="&lt;font face=&quot;Comic Sans MS&quot; style=&quot;font-size: 16px;&quot;&gt;WIFI&lt;/font&gt;" style="rounded=1;whiteSpace=wrap;html=1;strokeWidth=2;fillWeight=4;hachureGap=8;hachureAngle=45;fillColor=#d5e8d4;strokeColor=none;align=center;verticalAlign=middle;fontFamily=Helvetica;fontSize=12;" vertex="1" parent="1">
          <mxGeometry x="208" y="1219" width="120" height="60" as="geometry" />
        </mxCell>
        <mxCell id="W1v7sUN2d6mJsJaFAW1B-90" style="edgeStyle=orthogonalEdgeStyle;rounded=0;orthogonalLoop=1;jettySize=auto;html=1;exitX=1;exitY=0.5;exitDx=0;exitDy=0;entryX=0;entryY=0.5;entryDx=0;entryDy=0;fontFamily=Helvetica;fontSize=12;fontColor=default;dashed=1;" edge="1" parent="1" source="W1v7sUN2d6mJsJaFAW1B-82" target="W1v7sUN2d6mJsJaFAW1B-84">
          <mxGeometry relative="1" as="geometry" />
        </mxCell>
        <mxCell id="W1v7sUN2d6mJsJaFAW1B-82" value="&lt;font face=&quot;Comic Sans MS&quot; style=&quot;font-size: 16px;&quot;&gt;5G&lt;/font&gt;" style="rounded=1;whiteSpace=wrap;html=1;strokeWidth=2;fillWeight=4;hachureGap=8;hachureAngle=45;fillColor=#d5e8d4;strokeColor=none;align=center;verticalAlign=middle;fontFamily=Helvetica;fontSize=12;" vertex="1" parent="1">
          <mxGeometry x="207.3" y="1375" width="120" height="60" as="geometry" />
        </mxCell>
        <mxCell id="W1v7sUN2d6mJsJaFAW1B-87" value="" style="edgeStyle=orthogonalEdgeStyle;rounded=0;orthogonalLoop=1;jettySize=auto;html=1;fontFamily=Helvetica;fontSize=12;fontColor=default;" edge="1" parent="1" source="W1v7sUN2d6mJsJaFAW1B-83" target="W1v7sUN2d6mJsJaFAW1B-84">
          <mxGeometry relative="1" as="geometry" />
        </mxCell>
        <mxCell id="W1v7sUN2d6mJsJaFAW1B-88" value="&lt;font style=&quot;font-size: 14px;&quot; face=&quot;Comic Sans MS&quot;&gt;IP-Port改变&lt;/font&gt;" style="edgeLabel;html=1;align=center;verticalAlign=middle;resizable=0;points=[];rounded=0;sketch=1;jiggle=2;curveFitting=1;strokeColor=default;fontFamily=Helvetica;fontSize=12;fontColor=default;fillColor=default;" vertex="1" connectable="0" parent="W1v7sUN2d6mJsJaFAW1B-87">
          <mxGeometry x="-0.0357" y="2" relative="1" as="geometry">
            <mxPoint as="offset" />
          </mxGeometry>
        </mxCell>
        <mxCell id="W1v7sUN2d6mJsJaFAW1B-83" value="&lt;font face=&quot;Comic Sans MS&quot; style=&quot;font-size: 16px;&quot;&gt;SIP+SPort+DIP+DPort&lt;/font&gt;" style="rounded=1;whiteSpace=wrap;html=1;strokeWidth=2;fillWeight=4;hachureGap=8;hachureAngle=45;fillColor=#d5e8d4;strokeColor=none;align=center;verticalAlign=middle;fontFamily=Helvetica;fontSize=12;" vertex="1" parent="1">
          <mxGeometry x="473" y="1215" width="205" height="68" as="geometry" />
        </mxCell>
        <mxCell id="W1v7sUN2d6mJsJaFAW1B-84" value="&lt;font face=&quot;Comic Sans MS&quot; style=&quot;font-size: 16px;&quot;&gt;SIP+SPort+DIP+DPort&lt;/font&gt;" style="rounded=1;whiteSpace=wrap;html=1;strokeWidth=2;fillWeight=4;hachureGap=8;hachureAngle=45;fillColor=#d5e8d4;strokeColor=none;align=center;verticalAlign=middle;fontFamily=Helvetica;fontSize=12;" vertex="1" parent="1">
          <mxGeometry x="473" y="1371" width="205" height="68" as="geometry" />
        </mxCell>
        <mxCell id="W1v7sUN2d6mJsJaFAW1B-91" value="" style="edgeStyle=orthogonalEdgeStyle;rounded=0;orthogonalLoop=1;jettySize=auto;html=1;fontFamily=Helvetica;fontSize=12;fontColor=default;" edge="1" parent="1" source="W1v7sUN2d6mJsJaFAW1B-94" target="W1v7sUN2d6mJsJaFAW1B-96">
          <mxGeometry relative="1" as="geometry" />
        </mxCell>
        <mxCell id="W1v7sUN2d6mJsJaFAW1B-92" value="&lt;font face=&quot;Comic Sans MS&quot; style=&quot;font-size: 14px;&quot;&gt;连接切换&lt;/font&gt;" style="edgeLabel;html=1;align=center;verticalAlign=middle;resizable=0;points=[];rounded=0;sketch=1;jiggle=2;curveFitting=1;strokeColor=default;fontFamily=Helvetica;fontSize=12;fontColor=default;fillColor=default;" vertex="1" connectable="0" parent="W1v7sUN2d6mJsJaFAW1B-91">
          <mxGeometry y="3" relative="1" as="geometry">
            <mxPoint as="offset" />
          </mxGeometry>
        </mxCell>
        <mxCell id="W1v7sUN2d6mJsJaFAW1B-93" style="edgeStyle=orthogonalEdgeStyle;rounded=0;orthogonalLoop=1;jettySize=auto;html=1;exitX=1;exitY=0.5;exitDx=0;exitDy=0;entryX=0;entryY=0.5;entryDx=0;entryDy=0;fontFamily=Helvetica;fontSize=12;fontColor=default;dashed=1;" edge="1" parent="1" source="W1v7sUN2d6mJsJaFAW1B-94" target="W1v7sUN2d6mJsJaFAW1B-99">
          <mxGeometry relative="1" as="geometry" />
        </mxCell>
        <mxCell id="W1v7sUN2d6mJsJaFAW1B-94" value="&lt;font face=&quot;Comic Sans MS&quot; style=&quot;font-size: 16px;&quot;&gt;WIFI&lt;/font&gt;" style="rounded=1;whiteSpace=wrap;html=1;strokeWidth=2;fillWeight=4;hachureGap=8;hachureAngle=45;fillColor=#d5e8d4;strokeColor=none;align=center;verticalAlign=middle;fontFamily=Helvetica;fontSize=12;" vertex="1" parent="1">
          <mxGeometry x="208" y="1513" width="120" height="60" as="geometry" />
        </mxCell>
        <mxCell id="W1v7sUN2d6mJsJaFAW1B-95" style="edgeStyle=orthogonalEdgeStyle;rounded=0;orthogonalLoop=1;jettySize=auto;html=1;exitX=1;exitY=0.5;exitDx=0;exitDy=0;entryX=0;entryY=0.5;entryDx=0;entryDy=0;fontFamily=Helvetica;fontSize=12;fontColor=default;dashed=1;" edge="1" parent="1" source="W1v7sUN2d6mJsJaFAW1B-96" target="W1v7sUN2d6mJsJaFAW1B-100">
          <mxGeometry relative="1" as="geometry" />
        </mxCell>
        <mxCell id="W1v7sUN2d6mJsJaFAW1B-96" value="&lt;font face=&quot;Comic Sans MS&quot; style=&quot;font-size: 16px;&quot;&gt;5G&lt;/font&gt;" style="rounded=1;whiteSpace=wrap;html=1;strokeWidth=2;fillWeight=4;hachureGap=8;hachureAngle=45;fillColor=#d5e8d4;strokeColor=none;align=center;verticalAlign=middle;fontFamily=Helvetica;fontSize=12;" vertex="1" parent="1">
          <mxGeometry x="207.3" y="1669" width="120" height="60" as="geometry" />
        </mxCell>
        <mxCell id="W1v7sUN2d6mJsJaFAW1B-97" value="" style="edgeStyle=orthogonalEdgeStyle;rounded=0;orthogonalLoop=1;jettySize=auto;html=1;fontFamily=Helvetica;fontSize=12;fontColor=default;" edge="1" parent="1" source="W1v7sUN2d6mJsJaFAW1B-99" target="W1v7sUN2d6mJsJaFAW1B-100">
          <mxGeometry relative="1" as="geometry" />
        </mxCell>
        <mxCell id="W1v7sUN2d6mJsJaFAW1B-98" value="" style="edgeLabel;html=1;align=center;verticalAlign=middle;resizable=0;points=[];rounded=0;sketch=1;jiggle=2;curveFitting=1;strokeColor=default;fontFamily=Helvetica;fontSize=12;fontColor=default;fillColor=default;" vertex="1" connectable="0" parent="W1v7sUN2d6mJsJaFAW1B-97">
          <mxGeometry x="-0.0357" y="2" relative="1" as="geometry">
            <mxPoint as="offset" />
          </mxGeometry>
        </mxCell>
        <mxCell id="W1v7sUN2d6mJsJaFAW1B-99" value="&lt;font face=&quot;Comic Sans MS&quot; style=&quot;font-size: 16px;&quot;&gt;ID&lt;/font&gt;" style="rounded=1;whiteSpace=wrap;html=1;strokeWidth=2;fillWeight=4;hachureGap=8;hachureAngle=45;fillColor=#d5e8d4;strokeColor=none;align=center;verticalAlign=middle;fontFamily=Helvetica;fontSize=12;" vertex="1" parent="1">
          <mxGeometry x="473" y="1509" width="205" height="68" as="geometry" />
        </mxCell>
        <mxCell id="W1v7sUN2d6mJsJaFAW1B-100" value="&lt;font face=&quot;Comic Sans MS&quot; style=&quot;font-size: 16px;&quot;&gt;ID&lt;/font&gt;" style="rounded=1;whiteSpace=wrap;html=1;strokeWidth=2;fillWeight=4;hachureGap=8;hachureAngle=45;fillColor=#d5e8d4;strokeColor=none;align=center;verticalAlign=middle;fontFamily=Helvetica;fontSize=12;" vertex="1" parent="1">
          <mxGeometry x="473" y="1665" width="205" height="68" as="geometry" />
        </mxCell>
        <mxCell id="W1v7sUN2d6mJsJaFAW1B-101" value="" style="line;strokeWidth=1;html=1;perimeter=backbonePerimeter;points=[];outlineConnect=0;rounded=0;sketch=1;jiggle=2;curveFitting=1;strokeColor=default;align=center;verticalAlign=middle;fontFamily=Helvetica;fontSize=12;fontColor=default;fillColor=default;dashed=1;" vertex="1" parent="1">
          <mxGeometry x="91" y="1464" width="658" height="10" as="geometry" />
        </mxCell>
        <mxCell id="W1v7sUN2d6mJsJaFAW1B-102" value="&lt;font style=&quot;font-size: 16px;&quot; face=&quot;Comic Sans MS&quot;&gt;TCP&lt;/font&gt;" style="text;html=1;align=center;verticalAlign=middle;resizable=0;points=[];autosize=1;strokeColor=none;fillColor=none;fontFamily=Helvetica;fontSize=12;fontColor=default;" vertex="1" parent="1">
          <mxGeometry x="94" y="1389.5" width="47" height="31" as="geometry" />
        </mxCell>
        <mxCell id="W1v7sUN2d6mJsJaFAW1B-103" value="&lt;font style=&quot;font-size: 16px;&quot; face=&quot;Comic Sans MS&quot;&gt;QUIC&lt;/font&gt;" style="text;html=1;align=center;verticalAlign=middle;resizable=0;points=[];autosize=1;strokeColor=none;fillColor=none;fontFamily=Helvetica;fontSize=12;fontColor=default;" vertex="1" parent="1">
          <mxGeometry x="89" y="1523" width="62" height="31" as="geometry" />
        </mxCell>
        <mxCell id="W1v7sUN2d6mJsJaFAW1B-104" value="" style="shape=partialRectangle;whiteSpace=wrap;html=1;left=0;right=0;fillColor=none;rounded=0;sketch=1;jiggle=2;curveFitting=1;strokeColor=default;align=center;verticalAlign=middle;fontFamily=Helvetica;fontSize=12;fontColor=default;" vertex="1" parent="1">
          <mxGeometry x="275.62" y="290" width="231" height="49" as="geometry" />
        </mxCell>
        <mxCell id="W1v7sUN2d6mJsJaFAW1B-105" value="0" style="rounded=0;whiteSpace=wrap;html=1;sketch=1;curveFitting=1;jiggle=2;fillColor=#dae8fc;strokeColor=#6c8ebf;" vertex="1" parent="1">
          <mxGeometry x="455.12" y="294.5" width="35" height="35" as="geometry" />
        </mxCell>
        <mxCell id="W1v7sUN2d6mJsJaFAW1B-106" value="1" style="rounded=0;whiteSpace=wrap;html=1;sketch=1;curveFitting=1;jiggle=2;" vertex="1" parent="1">
          <mxGeometry x="407.12" y="294.5" width="35" height="35" as="geometry" />
        </mxCell>
        <mxCell id="W1v7sUN2d6mJsJaFAW1B-107" value="2" style="rounded=0;whiteSpace=wrap;html=1;sketch=1;curveFitting=1;jiggle=2;fillColor=#dae8fc;strokeColor=#6c8ebf;" vertex="1" parent="1">
          <mxGeometry x="354.12" y="294.5" width="35" height="35" as="geometry" />
        </mxCell>
        <mxCell id="W1v7sUN2d6mJsJaFAW1B-108" value="&lt;font style=&quot;font-size: 16px;&quot; face=&quot;Comic Sans MS&quot;&gt;stream 1&lt;/font&gt;" style="text;html=1;align=center;verticalAlign=middle;resizable=0;points=[];autosize=1;strokeColor=none;fillColor=none;fontFamily=Helvetica;fontSize=12;fontColor=default;" vertex="1" parent="1">
          <mxGeometry x="273.67" y="296.5" width="82" height="31" as="geometry" />
        </mxCell>
        <mxCell id="W1v7sUN2d6mJsJaFAW1B-109" value="" style="shape=partialRectangle;whiteSpace=wrap;html=1;left=0;right=0;fillColor=none;rounded=0;sketch=1;jiggle=2;curveFitting=1;strokeColor=default;align=center;verticalAlign=middle;fontFamily=Helvetica;fontSize=12;fontColor=default;" vertex="1" parent="1">
          <mxGeometry x="275.62" y="221" width="231" height="49" as="geometry" />
        </mxCell>
        <mxCell id="W1v7sUN2d6mJsJaFAW1B-110" value="7" style="rounded=0;whiteSpace=wrap;html=1;sketch=1;curveFitting=1;jiggle=2;fillColor=#dae8fc;strokeColor=#6c8ebf;" vertex="1" parent="1">
          <mxGeometry x="455.12" y="225.5" width="35" height="35" as="geometry" />
        </mxCell>
        <mxCell id="W1v7sUN2d6mJsJaFAW1B-111" value="8" style="rounded=0;whiteSpace=wrap;html=1;sketch=1;curveFitting=1;jiggle=2;fillColor=#dae8fc;strokeColor=#6c8ebf;" vertex="1" parent="1">
          <mxGeometry x="407.12" y="225.5" width="35" height="35" as="geometry" />
        </mxCell>
        <mxCell id="W1v7sUN2d6mJsJaFAW1B-112" value="9" style="rounded=0;whiteSpace=wrap;html=1;sketch=1;curveFitting=1;jiggle=2;fillColor=#dae8fc;strokeColor=#6c8ebf;" vertex="1" parent="1">
          <mxGeometry x="354.12" y="225.5" width="35" height="35" as="geometry" />
        </mxCell>
        <mxCell id="W1v7sUN2d6mJsJaFAW1B-113" value="&lt;font style=&quot;font-size: 16px;&quot; face=&quot;Comic Sans MS&quot;&gt;stream 2&lt;/font&gt;" style="text;html=1;align=center;verticalAlign=middle;resizable=0;points=[];autosize=1;strokeColor=none;fillColor=none;fontFamily=Helvetica;fontSize=12;fontColor=default;" vertex="1" parent="1">
          <mxGeometry x="272.67" y="227.5" width="85" height="31" as="geometry" />
        </mxCell>
        <mxCell id="W1v7sUN2d6mJsJaFAW1B-114" value="&lt;font style=&quot;font-size: 16px;&quot;&gt;多接收队列&lt;/font&gt;" style="text;html=1;align=center;verticalAlign=middle;resizable=0;points=[];autosize=1;strokeColor=none;fillColor=none;fontFamily=Helvetica;fontSize=12;fontColor=default;" vertex="1" parent="1">
          <mxGeometry x="143" y="260.5" width="98" height="31" as="geometry" />
        </mxCell>
      </root>
    </mxGraphModel>
  </diagram>
</mxfile>
